<svg xmlns="http://www.w3.org/2000/svg" viewBox="312 283 270 362"><g fill="#0E0F13">
    <path d="M577.56,642.47h-1v-223.96c0-71.36-58.05-129.41-129.41-129.41s-129.41,58.05-129.41,129.41v223.96h-1v-223.96c0-71.91,58.5-130.41,130.41-130.41s130.41,58.5,130.41,130.41v223.96Z"></path>
    <path d="M567.19,642.47h-1v-223.9c0-65.64-53.4-119.05-119.05-119.05s-119.05,53.41-119.05,119.05v223.9h-1v-223.9c0-66.2,53.85-120.05,120.05-120.05s120.05,53.85,120.05,120.05v223.9Z"></path>
    <path d="M556.83,642.47h-1v-223.84c0-59.93-48.75-108.68-108.68-108.68s-108.68,48.75-108.68,108.68v223.84h-1v-223.84c0-60.48,49.2-109.68,109.68-109.68s109.68,49.2,109.68,109.68v223.84Z"></path>
    <path d="M546.46,642.47h-1v-223.78c0-54.21-44.1-98.32-98.32-98.32s-98.32,44.1-98.32,98.32v223.78h-1v-223.78c0-54.76,44.55-99.32,99.32-99.32s99.32,44.55,99.32,99.32v223.78Z"></path>
    <path d="M536.09,642.47h-1v-223.72c0-48.5-39.45-87.95-87.95-87.95s-87.95,39.45-87.95,87.95v223.72h-1v-223.72c0-49.05,39.9-88.95,88.95-88.95s88.95,39.9,88.95,88.95v223.72Z"></path>
    <path d="M525.73,642.47h-1v-223.66c0-42.78-34.8-77.58-77.58-77.58s-77.58,34.8-77.58,77.58v223.66h-1v-223.66c0-43.33,35.25-78.58,78.58-78.58s78.58,35.25,78.58,78.58v223.66Z"></path>
    <path d="M515.36,642.47h-1v-223.6c0-37.06-30.15-67.22-67.22-67.22s-67.22,30.15-67.22,67.22v223.6h-1v-223.6c0-37.62,30.6-68.22,68.22-68.22s68.22,30.6,68.22,68.22v223.6Z"></path>
    <path d="M505,642.47h-1v-223.54c0-31.35-25.5-56.85-56.85-56.85s-56.85,25.5-56.85,56.85v223.54h-1v-223.54c0-31.9,25.95-57.85,57.85-57.85s57.85,25.95,57.85,57.85v223.54Z"></path>
    <path d="M494.63,642.47h-1v-223.48c0-25.63-20.85-46.49-46.49-46.49s-46.49,20.85-46.49,46.49v223.48h-1v-223.48c0-26.18,21.3-47.49,47.49-47.49s47.49,21.3,47.49,47.49v223.48Z"></path>
    <path d="M484.26,642.47h-1v-223.42c0-19.92-16.2-36.12-36.12-36.12s-36.12,16.2-36.12,36.12v223.42h-1v-223.42c0-20.47,16.65-37.12,37.12-37.12s37.12,16.65,37.12,37.12v223.42Z"></path>
    <path d="M473.9,642.47h-1v-223.36c0-14.2-11.55-25.75-25.75-25.75s-25.75,11.55-25.75,25.75v223.36h-1v-223.36c0-14.75,12-26.75,26.75-26.75s26.75,12,26.75,26.75v223.36Z"></path>
    <path d="M463.53,642.47h-1v-223.3c0-8.49-6.9-15.39-15.39-15.39s-15.39,6.9-15.39,15.39v223.3h-1v-223.3c0-9.04,7.35-16.39,16.39-16.39s16.39,7.35,16.39,16.39v223.3Z"></path>
  </g></svg>