<?xml version="1.0"?>
<svg id="_Слой_1" data-name="Слой 1" xmlns="http://www.w3.org/2000/svg" viewBox="0 0 953 944">
  <defs></defs>
  <path class="cls-5" d="M490.69,250.47h0c78.74,0,142.67,63.93,142.67,142.67v249.33h-285.33v-249.33c0-78.74,63.93-142.67,142.67-142.67Z"></path>
  <g>
    <path class="cls-10" d="M577.56,642.47h-1v-223.96c0-71.36-58.05-129.41-129.41-129.41s-129.41,58.05-129.41,129.41v223.96h-1v-223.96c0-71.91,58.5-130.41,130.41-130.41s130.41,58.5,130.41,130.41v223.96Z"></path>
    <path class="cls-10" d="M567.19,642.47h-1v-223.9c0-65.64-53.4-119.05-119.05-119.05s-119.05,53.41-119.05,119.05v223.9h-1v-223.9c0-66.2,53.85-120.05,120.05-120.05s120.05,53.85,120.05,120.05v223.9Z"></path>
    <path class="cls-10" d="M556.83,642.47h-1v-223.84c0-59.93-48.75-108.68-108.68-108.68s-108.68,48.75-108.68,108.68v223.84h-1v-223.84c0-60.48,49.2-109.68,109.68-109.68s109.68,49.2,109.68,109.68v223.84Z"></path>
    <path class="cls-10" d="M546.46,642.47h-1v-223.78c0-54.21-44.1-98.32-98.32-98.32s-98.32,44.1-98.32,98.32v223.78h-1v-223.78c0-54.76,44.55-99.32,99.32-99.32s99.32,44.55,99.32,99.32v223.78Z"></path>
    <path class="cls-10" d="M536.09,642.47h-1v-223.72c0-48.5-39.45-87.95-87.95-87.95s-87.95,39.45-87.95,87.95v223.72h-1v-223.72c0-49.05,39.9-88.95,88.95-88.95s88.95,39.9,88.95,88.95v223.72Z"></path>
    <path class="cls-10" d="M525.73,642.47h-1v-223.66c0-42.78-34.8-77.58-77.58-77.58s-77.58,34.8-77.58,77.58v223.66h-1v-223.66c0-43.33,35.25-78.58,78.58-78.58s78.58,35.25,78.58,78.58v223.66Z"></path>
    <path class="cls-10" d="M515.36,642.47h-1v-223.6c0-37.06-30.15-67.22-67.22-67.22s-67.22,30.15-67.22,67.22v223.6h-1v-223.6c0-37.62,30.6-68.22,68.22-68.22s68.22,30.6,68.22,68.22v223.6Z"></path>
    <path class="cls-10" d="M505,642.47h-1v-223.54c0-31.35-25.5-56.85-56.85-56.85s-56.85,25.5-56.85,56.85v223.54h-1v-223.54c0-31.9,25.95-57.85,57.85-57.85s57.85,25.95,57.85,57.85v223.54Z"></path>
    <path class="cls-10" d="M494.63,642.47h-1v-223.48c0-25.63-20.85-46.49-46.49-46.49s-46.49,20.85-46.49,46.49v223.48h-1v-223.48c0-26.18,21.3-47.49,47.49-47.49s47.49,21.3,47.49,47.49v223.48Z"></path>
    <path class="cls-10" d="M484.26,642.47h-1v-223.42c0-19.92-16.2-36.12-36.12-36.12s-36.12,16.2-36.12,36.12v223.42h-1v-223.42c0-20.47,16.65-37.12,37.12-37.12s37.12,16.65,37.12,37.12v223.42Z"></path>
    <path class="cls-10" d="M473.9,642.47h-1v-223.36c0-14.2-11.55-25.75-25.75-25.75s-25.75,11.55-25.75,25.75v223.36h-1v-223.36c0-14.75,12-26.75,26.75-26.75s26.75,12,26.75,26.75v223.36Z"></path>
    <path class="cls-10" d="M463.53,642.47h-1v-223.3c0-8.49-6.9-15.39-15.39-15.39s-15.39,6.9-15.39,15.39v223.3h-1v-223.3c0-9.04,7.35-16.39,16.39-16.39s16.39,7.35,16.39,16.39v223.3Z"></path>
  </g>
  <g>
    <path class="cls-7" d="M659.02,86.07l-69.89,636.89-12.73-112.82-10.4-95.32-9.24-84.68-4.37-39.94-33.44-304.16-36.22.12v719.85c1.46,1.37,3.51,1.39,5.09.13l.26-675.45c13.2,110.08,24.73,219.27,37.27,329.1l2.39,20.92,9.13,82.27,27.45,243.94,20.52-.02,73.89-668.42c.2-3.85.59-6.81,1.44-9.24v677.71s34.01-.13,34.01-.13V86.18s-35.16-.11-35.16-.11Z"></path>
    <path class="cls-7" d="M416.79,100.82c-9.64-10.31-22.41-14.98-36.7-14.96l-108.83.13v720.83s35.04.1,35.04.1v-358.8s75.44-.08,75.44-.08c15.38-.02,28.5-6.71,38.68-18.41,6.71-8.62,11.68-18.33,11.69-29.67l.16-261.55c0-14.74-4.72-27.75-15.48-37.59ZM382.03,431.29c-8.66,9.16-20.56,12.64-33.09,12.61l-42.64-.13V91.04s48.47.24,48.47.24c12.23.06,22.46,6.54,30.38,15.18,7.26,8.39,11.97,18.12,11.98,29.65l.12,254.62c0,15.84-2.99,30.29-15.22,40.56Z"></path>
  </g>
  <g>
    <path class="cls-15" d="M784.23,799.49c-.04-.82-.06-3.56-.06-3.56l3.69.07s1.52,10.78-4.85,11.11c-3.16.17-7.64.19-10.89,0-1.74-.1-4.5-3.51-4.51-5.39l-.11-34.57c-.01-3.58,1.32-6.69,5.55-6.91,3.66-.19,9.03-.71,12.39.72s3.39,5.64,3.56,9.61l-4.98.06c0-4.65,0-8.14-3.66-9.5-3.43-1.28-8.43.41-8.43,4.48v35.51c0,3.97,3.7,5.65,6.72,5.46,3.93-.24,5.75-3.25,5.56-7.09Z"></path>
    <path class="cls-13" d="M746.26,806.28c-3.45,0-5.18.06-7.83.06-7.08,0-5.74-7.67-5.74-10.53h3.57c0,2.54-.99,9.79,3.73,9.79,2.21,0,7.71-.75,7.94-3.88.31-4.3.07-7.37.06-11.65,0-3.95-4.26-6.13-7.91-5.79s-7.19-1.89-7.29-5.83l-.27-11.29c-.09-3.81,3.18-6.4,6.73-6.27,2.89.11,4.21.18,6.6.18,6.69,0,6.56,7.04,6.24,10.57l-4.07.08s-.08-2.11-.06-3.05c.08-4.4-1.69-6.85-5.85-6.8-3.61.05-5.41,2.77-5.37,6.8l.11,9.36c.1,9.15,15.06,1.59,15.06,8.85,0,2.53.14,7.99.14,12.77,0,4.25-1.83,6.61-5.78,6.61Z"></path>
    <path class="cls-8" d="M722.09,759.79v42.03c-1.36,3.88-4.22,5.04-6.72,5.04s-5.21-1.38-5.21-3.67v-43.4h-4.85v43.4c0,3.25,4.18,4.21,10.01,4.21s6.76-4.46,6.76-4.46v4.18h4.85v-47.33h-4.85Z"></path>
    <g>
      <rect class="cls-3" x="757.78" y="760.1" width="4.85" height="47.33"></rect>
      <rect class="cls-3" x="757.78" y="741.44" width="4.85" height="6.6"></rect>
    </g>
  </g>
  <g>
    <path class="cls-9" d="M350.34,805.86c5.93-.41,4.97-10.26,4.97-10.26h4.03s-.48,5.94-.48,5.94c-.17,2.1-2.47,4.89-4.75,4.92l-9.71.11c-2.24.03-5.61-2.41-5.62-4.85l-.11-32.31c-.01-3.18.49-7.33,4.73-8.04,3.33-.56,8.14-.42,11.94-.04,4.86.49,3.69,13.59,3.64,17.08-.06,4.23-3.41,5.57-7.23,5.6-3.11.02-5,.12-8.47.16l.11,17.74c.02,3.5,4.49,4.14,6.93,3.97ZM351.48,782.94c1.49-.08,3.39-1.01,3.39-4.91l.18-9.3c.09-4.58-2.33-6.93-6.25-6.97-4.39-.04-5.62,3.59-5.57,7.7l.16,13.71,8.09-.24Z"></path>
    <path class="cls-14" d="M453.53,805.86c5.93-.41,4.97-10.26,4.97-10.26h4.03s-.48,5.94-.48,5.94c-.17,2.1-2.47,4.89-4.75,4.92l-9.71.11c-2.24.03-5.61-2.41-5.62-4.85l-.11-32.31c-.01-3.18.49-7.33,4.73-8.04,3.33-.56,8.14-.42,11.94-.04,4.86.49,3.69,13.59,3.64,17.08-.06,4.23-3.41,5.57-7.23,5.6-3.11.02-5,.12-8.47.16l.11,17.74c.02,3.5,4.49,4.14,6.93,3.97ZM454.67,782.94c1.49-.08,3.39-1.01,3.39-4.91l.18-9.3c.09-4.58-2.33-6.93-6.25-6.97-4.39-.04-5.62,3.59-5.57,7.7l.16,13.71,8.09-.24Z"></path>
    <path class="cls-1" d="M402.55,806.75h-5.77c-2.59,0-6.71-1.55-6.74-5.43l-.24-39.64-4.37-.51,4.48-.45-.07-31.48c0-1.35,3.31-1.48,4.22-.53l.11,31.98,8.83.36-8.88,1.38.03,37.74c0,1.45,1.16,4.26,2.4,4.66l6,1.92Z"></path>
    <path class="cls-2" d="M377.56,806.28c-3.45,0-5.18.06-7.83.06-7.08,0-5.74-7.67-5.74-10.53h3.57c0,2.54-.99,9.79,3.73,9.79,2.21,0,7.71-.75,7.94-3.88.31-4.3.07-7.37.06-11.65,0-3.95-4.26-6.13-7.91-5.79s-7.19-1.89-7.29-5.83l-.27-11.29c-.09-3.81,3.18-6.4,6.73-6.27,2.89.11,4.21.18,6.6.18,6.69,0,6.56,7.04,6.24,10.57l-4.07.08s-.08-2.11-.06-3.05c.08-4.4-1.69-6.85-5.85-6.8-3.61.05-5.41,2.77-5.37,6.8l.11,9.36c.1,9.15,15.06,1.59,15.06,8.85,0,2.53.14,7.99.14,12.77,0,4.25-1.83,6.61-5.78,6.61Z"></path>
    <path class="cls-11" d="M325.98,759.73c-5.83,0-6.76,4.46-6.76,4.46v-4.46h-4.85v47.33h4.85v-41.75c1.36-3.88,4.22-5.04,6.72-5.04s5.43,2.19,5.43,4.48l4.62.02c0-3.25-4.18-5.04-10.01-5.04Z"></path>
    <path class="cls-4" d="M437.46,837.77v-28.88s-.19-47.75-.19-47.75l-13.94-.25c-3.66-.07-6.34,2.95-6.35,6.79l-.12,33.77c0,6.28,8.42,5.38,16.32,5.38l-.35,30.95h-11.42v-24.62s-4.52-.52-4.52-.52l-.02,25.14h0v.21h20.6v-.21h0ZM426.04,805.75c-2.35,0-4.63-2.34-4.63-4.63l-.02-32.54c0-2.47,1.22-5.77,3.96-6.18,2.29-.34,5.25-.2,7.81-.2v43.55s-7.12,0-7.12,0Z"></path>
    <g>
      <rect class="cls-12" x="407.6" y="760.1" width="4.85" height="47.33"></rect>
      <rect class="cls-12" x="407.6" y="741.44" width="4.85" height="6.6"></rect>
    </g>
  </g>
</svg>